<?xml version="1.0" standalone="no"?>
<!DOCTYPE svg PUBLIC "-//W3C//DTD SVG 20010904//EN"
 "http://www.w3.org/TR/2001/REC-SVG-20010904/DTD/svg10.dtd">
<svg version="1.0" xmlns="http://www.w3.org/2000/svg"
 width="300.000000pt" height="225.000000pt" viewBox="0 0 300.000000 225.000000"
 preserveAspectRatio="xMidYMid meet">
<metadata>
Created by potrace 1.10, written by Peter Selinger 2001-2011
</metadata>
<g transform="translate(0.000000,225.000000) scale(0.100000,-0.100000)"
fill="#000000" stroke="none">
<path d="M1303 1968 c-24 -12 -53 -74 -53 -116 0 -15 4 -43 10 -61 13 -45 5
-51 -21 -17 -35 45 -72 57 -161 55 -112 -3 -278 -43 -330 -81 -30 -21 -36 -53
-16 -91 6 -12 14 -29 18 -37 4 -8 18 -17 31 -18 13 -2 34 -13 46 -24 15 -14
29 -19 46 -15 17 5 38 -4 77 -30 53 -35 54 -36 83 -20 16 10 35 17 43 17 17 0
19 -26 3 -36 -7 -4 -9 -22 -6 -45 l5 -38 -39 19 c-21 11 -57 29 -78 40 -22 11
-49 20 -61 20 -29 0 -70 -44 -70 -75 0 -14 -4 -25 -10 -25 -5 0 -10 4 -10 9 0
5 -19 29 -43 53 -26 27 -48 62 -56 89 -36 120 -72 154 -158 147 -48 -4 -61
-10 -85 -37 -46 -51 -40 -107 23 -228 52 -102 95 -153 129 -153 24 0 24 1 5
-75 -9 -41 -11 -72 -5 -95 23 -93 32 -112 63 -130 43 -26 53 -25 89 10 33 33
54 40 43 13 -4 -10 -15 -38 -23 -63 -8 -25 -25 -73 -38 -108 -33 -86 -31 -105
14 -140 75 -59 122 -73 177 -52 23 9 25 12 11 25 -17 17 -36 20 -36 5 0 -5 -9
-10 -20 -10 -26 0 -120 47 -120 60 0 13 -3 13 65 -10 35 -12 62 -17 68 -11 5
5 -7 14 -30 21 -21 6 -54 19 -74 28 l-37 16 14 38 c7 20 21 49 31 65 17 27 17
28 -1 13 -17 -13 -18 -13 -14 5 2 11 11 20 22 20 12 0 27 17 45 52 23 47 29
52 51 47 14 -3 25 -6 25 -7 0 -7 80 -160 100 -193 l25 -40 -37 -44 -38 -44 55
30 c65 35 73 58 37 113 -14 20 -37 62 -52 91 -15 30 -38 69 -51 87 -30 40 -30
43 4 44 15 0 59 8 97 19 39 10 71 17 72 16 1 0 -14 -27 -33 -60 -19 -32 -37
-78 -41 -101 -5 -40 -3 -46 28 -74 18 -17 39 -31 46 -31 7 0 13 -1 13 -2 0
-14 -48 -116 -52 -112 -25 25 -198 -80 -198 -120 0 -29 53 -109 88 -132 14 -9
42 -32 60 -50 48 -46 84 -61 193 -75 106 -13 121 -11 143 23 13 21 13 30 -3
89 -20 73 -51 124 -81 134 -31 10 -23 22 19 29 25 4 50 18 71 38 31 31 32 32
25 8 -4 -14 -9 -56 -12 -93 -10 -125 34 -187 119 -168 46 11 173 57 198 73 34
21 92 236 79 295 -6 31 -6 31 17 16 13 -8 24 -19 24 -24 0 -9 53 -39 69 -39
27 0 42 50 44 142 2 73 7 103 25 139 15 31 20 55 16 75 -4 21 -1 34 10 43 21
18 33 6 16 -14 -16 -20 -5 -32 14 -16 24 20 3 81 -34 101 -28 15 -97 12 -133
-6 -18 -9 -51 -32 -74 -51 -30 -24 -43 -30 -43 -19 0 8 -4 17 -10 21 -5 3 -4
-8 2 -26 8 -24 8 -52 -2 -110 l-12 -78 31 -54 c31 -54 31 -55 9 -54 -13 1 -44
-2 -70 -7 -32 -5 -48 -4 -48 3 0 6 -7 11 -15 11 -8 0 -15 -6 -15 -14 0 -9 -20
-19 -52 -26 -29 -7 -68 -21 -85 -31 -39 -22 -42 -15 -10 20 16 19 17 21 3 11
-11 -8 -32 -33 -48 -55 -16 -22 -32 -40 -36 -41 -4 0 -20 -7 -37 -14 -16 -7
-33 -13 -37 -12 -3 1 -17 -10 -30 -23 -27 -28 -57 -31 -98 -10 -17 9 -30 12
-30 7 0 -4 16 -14 36 -21 70 -25 154 -124 154 -181 0 -11 5 -20 10 -20 6 0 4
-13 -5 -30 -15 -29 -40 -34 -29 -6 3 8 0 17 -7 22 -9 5 -10 2 -6 -9 10 -25 -2
-27 -92 -11 -95 16 -117 26 -126 53 -3 11 -12 18 -19 15 -8 -3 -23 6 -33 20
-11 14 -22 24 -24 21 -3 -2 -14 4 -26 13 -14 11 -25 35 -31 69 -5 29 -5 50 -1
47 5 -3 11 7 15 21 7 27 21 33 94 37 47 3 53 8 84 75 8 17 34 44 58 59 48 30
116 86 108 90 -3 2 11 20 30 40 34 36 34 36 -26 -9 -34 -25 -83 -57 -109 -71
l-47 -25 -23 27 c-14 15 -25 30 -25 34 0 4 -6 13 -14 21 -12 11 -11 20 8 60
13 25 28 52 34 60 7 8 9 17 5 21 -4 4 -1 11 7 16 10 7 11 10 3 10 -18 0 -16
23 4 65 12 26 21 34 34 30 19 -6 42 23 37 47 -2 6 3 13 10 14 6 1 15 2 20 3
12 2 -69 72 -96 82 -14 5 -26 8 -28 6 -7 -7 29 -49 56 -66 l28 -16 -23 -30
-24 -29 -7 30 c-4 16 -16 47 -26 68 -27 54 -38 31 -24 -48 12 -61 5 -116 -14
-116 -5 0 -16 -3 -26 -7 -12 -4 -15 -3 -10 5 9 15 -16 16 -31 1 -9 -9 -13 -6
-18 13 -4 14 -5 32 -3 41 2 9 -1 17 -6 19 -15 5 -27 -54 -15 -68 12 -14 4 -34
-13 -34 -6 0 -8 9 -5 20 3 11 1 20 -4 20 -9 0 -13 -14 -10 -37 1 -7 -5 -13
-12 -13 -8 0 -20 -7 -27 -15 -7 -8 -31 -20 -53 -26 -33 -9 -47 -8 -74 5 -19 9
-36 23 -39 31 -4 8 -10 15 -16 15 -5 0 -7 -4 -3 -10 3 -5 -8 -24 -24 -42 -22
-23 -31 -28 -31 -17 0 9 -7 22 -15 29 -12 10 -14 25 -10 59 l6 46 -18 -30 -18
-30 -3 35 c-4 40 8 131 15 113 3 -7 11 -13 19 -13 11 0 13 4 5 17 -5 10 -5 26
0 40 7 20 5 23 -15 23 -13 0 -34 11 -47 24 -36 36 -68 76 -61 76 4 0 3 4 -3 8
-5 4 -19 21 -31 37 -32 47 -38 59 -27 52 5 -4 8 6 5 25 -5 30 -5 31 -20 12
-14 -18 -14 -17 -8 9 4 17 2 27 -5 27 -7 0 -9 10 -4 27 9 36 14 41 25 23 7
-11 10 -8 10 13 0 18 5 27 16 27 8 0 12 5 9 10 -4 6 6 10 22 9 25 0 26 -1 8
-9 -19 -8 -19 -9 3 -9 42 -2 87 -34 90 -66 2 -17 8 -31 13 -33 5 -2 9 -17 9
-33 0 -16 6 -32 14 -35 8 -3 17 -17 21 -32 4 -18 9 -22 14 -13 6 9 13 5 25
-14 17 -26 17 -29 -3 -77 -23 -54 -27 -103 -11 -113 6 -4 10 7 10 27 0 35 31
111 48 122 6 3 13 2 17 -4 10 -17 35 -11 35 8 0 10 11 29 24 42 19 17 32 21
53 16 15 -4 34 -7 41 -8 6 -1 12 -4 12 -8 0 -7 68 -30 87 -30 31 0 55 108 39
175 -6 24 -2 37 21 67 15 20 36 39 46 41 18 5 24 27 7 27 -5 0 -10 -4 -10 -9
0 -5 -9 -12 -20 -16 -26 -8 -62 -61 -62 -90 0 -46 -75 -47 -149 -2 -50 29 -54
35 -53 67 2 64 4 70 17 70 8 0 24 11 37 25 13 14 25 23 28 20 2 -2 17 2 32 10
19 10 51 13 101 11 91 -5 103 -10 122 -47 17 -36 70 -64 156 -84 82 -20 114
-43 147 -110 21 -45 26 -65 22 -105 -3 -28 -12 -58 -22 -68 -9 -10 -16 -26
-16 -35 0 -9 -7 -17 -15 -17 -8 0 -15 6 -15 14 0 7 -7 19 -15 26 -22 18 -18 4
10 -38 14 -20 25 -43 25 -51 0 -20 29 18 30 39 0 8 9 29 19 47 15 24 25 30 41
26 29 -8 74 -54 95 -100 10 -21 27 -48 38 -60 11 -13 17 -23 13 -23 -12 0 -50
22 -59 34 -5 7 -7 2 -4 -11 4 -18 -1 -23 -23 -28 -16 -3 -34 -12 -40 -20 -9
-11 -4 -11 27 1 65 23 89 16 61 -16 -7 -8 -3 -6 9 3 21 18 21 18 39 -12 22
-36 30 -39 39 -10 5 15 0 29 -17 47 -35 38 -58 74 -58 91 0 11 3 11 18 -2 13
-12 37 -17 79 -17 104 0 143 24 143 88 l0 29 41 -20 c23 -11 69 -22 109 -25
l68 -5 25 50 c14 28 43 79 65 114 34 53 39 66 30 88 -16 44 -50 71 -108 88
-30 8 -71 23 -90 33 -57 28 -96 32 -121 11 -21 -16 -29 -46 -45 -157 -6 -37
-9 -41 -36 -41 -19 0 -39 -9 -56 -27 -25 -26 -25 -28 -5 -22 16 5 23 2 28 -14
3 -11 11 -20 18 -20 8 0 7 4 -1 12 -10 10 -6 17 14 35 15 13 30 23 34 23 12 0
20 -41 20 -111 0 -51 -4 -70 -18 -82 -24 -22 -50 -24 -32 -2 7 8 19 15 26 15
15 0 17 33 5 65 -7 16 -9 14 -15 -16 -4 -23 -15 -40 -31 -49 -13 -7 -22 -17
-19 -22 6 -10 -20 -11 -30 -1 -13 13 -66 12 -60 -1 3 -6 -2 -2 -11 9 -9 11
-25 31 -36 44 -34 39 -9 89 62 124 18 8 47 42 75 88 79 127 95 200 54 244 -30
32 -48 31 -111 -1 -50 -27 -50 -27 -139 -13 -85 12 -90 14 -101 43 -17 44 -76
114 -109 131 -33 17 -114 19 -147 3z m101 -48 c25 -10 46 -16 46 -13 0 4 9 -3
21 -16 11 -12 18 -28 16 -35 -3 -7 14 -30 38 -52 24 -21 41 -42 39 -46 -9 -15
19 -8 38 9 17 15 18 15 18 -11 0 -15 -7 -43 -15 -63 l-16 -37 25 23 c22 21 25
22 29 4 3 -12 5 -8 6 10 0 16 -4 38 -10 49 -11 20 -10 21 32 14 27 -4 49 -14
58 -26 18 -26 28 -25 27 1 -1 17 9 24 44 35 25 8 45 14 46 14 0 0 1 -22 3 -50
2 -41 -1 -49 -14 -44 -18 7 -20 -7 -2 -25 7 -8 7 -11 1 -8 -7 4 -17 -6 -24
-23 -7 -16 -21 -32 -31 -35 -27 -9 -23 -25 6 -25 17 0 23 4 19 14 -3 8 10 28
30 47 25 22 36 41 36 60 0 33 19 79 33 79 5 0 7 -7 3 -15 -3 -8 -1 -15 4 -15
16 0 11 -30 -5 -36 -8 -4 -15 -15 -15 -26 0 -11 -12 -35 -27 -53 -16 -18 -39
-52 -53 -76 -14 -24 -43 -62 -65 -85 -22 -23 -47 -52 -56 -64 -15 -22 -17 -23
-62 -10 -50 15 -57 27 -57 95 0 22 -7 51 -15 65 -8 14 -17 33 -21 42 -3 9 -12
14 -20 11 -8 -3 -14 0 -14 6 0 6 -18 20 -40 31 -26 13 -40 27 -40 40 0 11 -4
20 -10 20 -5 0 -9 -6 -7 -12 2 -13 -4 -13 -63 -6 -27 3 -60 33 -60 55 0 7 5
22 12 32 9 15 9 31 1 68 -8 32 -8 52 -1 60 5 7 6 17 2 24 -4 7 -2 10 7 7 8 -2
21 -19 30 -37 18 -34 32 -22 18 15 -6 18 -3 34 7 34 1 0 23 -9 48 -20z m-444
-137 c-8 -3 -32 -21 -52 -41 -32 -30 -39 -33 -53 -22 -13 11 -14 10 -9 -4 3
-9 10 -16 14 -16 12 0 5 -79 -8 -92 -9 -9 -16 -8 -29 5 -13 13 -14 21 -6 41
10 21 9 23 -8 19 -10 -3 -19 -10 -19 -15 0 -5 -4 -6 -10 -3 -5 3 -10 1 -10 -6
0 -9 -3 -10 -11 -2 -6 6 -9 23 -7 39 2 23 7 29 26 27 12 -2 22 2 22 7 0 6 -5
10 -12 10 -8 0 -9 3 -2 10 6 6 34 13 62 17 29 3 60 12 69 19 10 7 27 13 38 13
14 0 16 -2 5 -6z m1053 -110 c5 14 11 14 37 6 16 -6 30 -14 30 -19 0 -11 86
-33 99 -25 6 3 11 2 11 -3 0 -5 3 -22 6 -38 4 -21 0 -36 -15 -53 -12 -13 -21
-33 -22 -45 0 -19 -1 -19 -11 4 l-10 25 -10 -22 c-6 -13 -7 -33 -2 -50 7 -26
8 -27 12 -5 2 14 9 22 20 20 16 -3 35 26 67 102 6 13 16 26 23 28 20 6 12 -56
-10 -90 -10 -15 -25 -43 -33 -62 -10 -23 -24 -38 -40 -42 -14 -3 -25 -10 -25
-16 0 -5 -6 -8 -12 -6 -7 1 -24 -4 -36 -11 -21 -11 -30 -10 -68 10 -43 23 -43
24 -21 37 l22 13 -22 -4 c-12 -3 -27 0 -32 7 -15 17 -24 83 -13 90 6 3 8 16 4
29 -5 20 -4 21 11 8 18 -15 24 -2 6 16 -6 6 -7 30 -3 62 6 43 8 49 19 35 11
-15 12 -15 18 -1z m-25 -566 c13 -14 14 -19 4 -26 -7 -4 -10 -15 -7 -23 4 -11
-1 -18 -15 -23 l-22 -7 21 -19 c27 -25 27 -43 1 -27 -17 11 -22 10 -30 -2 -5
-8 -6 -17 -2 -20 4 -3 9 -23 10 -45 2 -40 2 -40 -12 -15 -14 23 -22 20 -16 -5
1 -5 4 -19 5 -30 2 -11 6 -32 10 -47 12 -46 -4 -32 -31 27 -31 67 -50 83 -40
34 3 -19 11 -35 16 -37 5 -2 7 -9 4 -17 -3 -7 5 -21 19 -30 14 -9 27 -25 30
-36 4 -16 2 -19 -16 -13 -37 10 -80 59 -81 92 0 17 -5 28 -9 25 -5 -3 -17 3
-28 13 -17 15 -19 26 -13 78 8 77 24 103 82 142 52 35 92 38 120 11z m-220
-369 c34 0 42 -4 40 -17 -2 -9 -10 -15 -18 -14 -17 2 -43 -30 -54 -64 -6 -18
-3 -23 9 -23 9 0 14 4 10 9 -3 5 -1 12 4 16 6 3 8 13 5 23 -5 15 -4 15 6 -1 6
-10 8 -26 4 -35 -4 -9 -9 -30 -11 -47 -4 -40 -24 -59 -21 -20 2 17 -1 30 -7
30 -5 0 -9 -13 -7 -28 2 -16 -1 -34 -6 -40 -6 -7 -12 -25 -14 -41 -3 -26 -9
-31 -51 -42 -28 -7 -49 -8 -53 -3 -5 9 0 48 12 92 4 13 -1 17 -18 17 -24 0
-64 -20 -40 -20 6 0 12 -7 12 -15 0 -8 4 -15 8 -15 4 0 6 -15 4 -33 -3 -25
-12 -39 -35 -52 -32 -18 -32 -18 -17 1 8 10 21 25 28 32 6 7 12 21 12 30 -1
14 -3 14 -12 -3 -14 -25 -56 -65 -68 -65 -10 0 -12 7 -29 86 -10 48 -4 136 11
177 6 15 20 33 31 39 17 9 19 8 14 -6 -8 -20 1 -21 23 -1 29 26 93 44 140 38
25 -2 64 -5 88 -5z"/>
<path d="M1635 1523 l46 -47 19 22 c11 12 13 16 4 8 -14 -12 -21 -9 -55 25
-21 21 -44 39 -49 39 -6 0 10 -21 35 -47z"/>
<path d="M2040 1462 c0 -9 38 -52 45 -52 15 0 1 30 -20 44 -14 9 -25 13 -25 8z"/>
<path d="M1631 684 c-6 -14 -9 -29 -6 -34 3 -5 1 -11 -4 -14 -5 -4 -12 2 -16
13 -8 27 -32 33 -47 13 -7 -9 -25 -23 -40 -31 -16 -8 -28 -18 -28 -23 0 -16
32 -8 64 17 38 29 46 31 46 10 0 -8 -9 -19 -21 -25 -11 -7 -18 -14 -15 -17 12
-12 76 42 76 64 0 17 4 21 18 16 15 -6 16 -5 2 13 -8 10 -15 20 -16 22 0 1 -6
-10 -13 -24z"/>
<path d="M1699 689 c-6 -12 -9 -30 -6 -40 3 -12 0 -19 -8 -19 -8 0 -11 -7 -8
-19 3 -10 0 -22 -6 -25 -7 -5 -7 -15 -1 -31 6 -16 6 -25 0 -25 -6 0 -10 -11
-10 -25 0 -40 24 -10 28 34 1 20 9 56 16 81 21 68 25 90 15 90 -4 0 -13 -9
-20 -21z"/>
<path d="M1445 1490 c3 -6 -4 -10 -16 -10 -17 0 -20 -3 -12 -11 7 -7 19 -9 27
-6 18 7 22 37 5 37 -5 0 -7 -4 -4 -10z"/>
<path d="M1380 1433 c0 -10 -3 -29 -7 -42 -5 -20 -3 -23 10 -18 10 4 14 2 11
-7 -3 -7 4 -21 16 -31 22 -20 27 -40 8 -30 -7 4 -5 0 5 -8 9 -8 17 -23 17 -33
0 -15 2 -16 9 -5 10 16 9 25 -15 96 -24 70 -36 95 -46 95 -4 0 -8 -8 -8 -17z"/>
<path d="M1296 1422 c-3 -6 1 -12 9 -16 8 -3 15 -14 15 -25 0 -11 5 -23 10
-26 6 -3 10 4 10 18 0 26 -34 64 -44 49z"/>
<path d="M1625 1274 c31 -28 42 -26 25 5 -6 12 -20 21 -32 21 -20 0 -19 -2 7
-26z"/>
<path d="M976 1282 c-3 -5 2 -24 11 -43 23 -47 21 -88 -6 -111 -15 -11 -18
-18 -9 -18 19 0 52 59 53 97 1 18 -2 30 -7 27 -4 -3 -8 1 -8 8 -1 19 -27 51
-34 40z"/>
<path d="M875 1269 c-4 -6 -13 -8 -20 -5 -14 5 -14 -4 -1 -42 11 -34 29 -22
30 21 1 40 0 42 -9 26z"/>
<path d="M940 1235 c0 -8 -8 -15 -17 -15 -14 0 -15 -2 -5 -9 8 -4 13 -12 12
-17 -1 -5 3 -10 9 -12 7 -2 11 11 11 32 0 20 -2 36 -5 36 -3 0 -5 -7 -5 -15z"/>
<path d="M1360 1180 c6 -11 15 -20 20 -20 13 0 37 -39 46 -75 6 -26 5 -28 -8
-17 -13 10 -17 10 -20 0 -3 -7 5 -17 16 -23 12 -6 21 -22 23 -37 1 -15 10 -35
21 -46 19 -19 19 -19 32 2 7 11 16 32 21 46 l7 25 2 -25 c1 -14 2 -29 1 -33
-1 -5 3 -6 8 -3 18 12 22 58 6 89 -10 20 -12 34 -5 41 11 11 -49 36 -86 36
-25 0 -59 34 -49 49 4 7 -4 11 -20 11 -23 0 -24 -2 -15 -20z m130 -90 c16 -8
17 -14 8 -42 -6 -18 -12 -39 -14 -45 -7 -26 -24 -12 -24 20 0 18 -7 43 -16 55
-14 21 -14 22 6 22 12 0 30 -4 40 -10z"/>
<path d="M756 1158 c1 -18 3 -45 3 -60 1 -43 21 -33 21 10 0 43 -9 82 -19 82
-4 0 -6 -15 -5 -32z"/>
<path d="M903 1160 c-8 -12 -9 -21 -3 -25 6 -3 10 -22 10 -41 0 -19 4 -34 8
-34 17 0 21 13 11 33 -6 10 -11 35 -11 53 0 19 -1 34 -2 34 0 0 -7 -9 -13 -20z"/>
<path d="M1590 1102 c-29 -44 -31 -53 -20 -90 7 -24 8 -22 8 15 0 31 6 49 26
70 26 28 33 43 19 43 -5 0 -19 -17 -33 -38z"/>
<path d="M1630 1085 c-29 -47 -22 -54 9 -9 13 19 21 37 19 40 -3 3 -16 -11
-28 -31z"/>
<path d="M1680 1103 c0 -11 5 -24 10 -29 6 -6 13 -42 16 -79 5 -79 9 -88 24
-51 12 33 13 126 1 126 -5 0 -8 8 -7 17 0 10 -3 18 -9 18 -5 0 -16 4 -22 8 -9
6 -13 2 -13 -10z"/>
<path d="M1731 837 c-13 -13 -15 -37 -3 -37 5 0 17 8 26 19 14 15 14 19 3 24
-8 3 -20 0 -26 -6z"/>
<path d="M1023 558 c-13 -6 -23 -16 -23 -22 0 -6 5 -5 12 2 16 16 31 15 22 0
-4 -7 1 -6 12 3 10 9 26 14 34 12 13 -4 13 -3 0 6 -18 13 -28 13 -57 -1z"/>
</g>
</svg>
